<?xml version="1.0" encoding="utf-8"?>
<!-- Generator: Adobe Illustrator 15.1.0, SVG Export Plug-In . SVG Version: 6.00 Build 0)  -->
<!DOCTYPE svg PUBLIC "-//W3C//DTD SVG 1.1//EN" "http://www.w3.org/Graphics/SVG/1.1/DTD/svg11.dtd" [
	<!ENTITY ns_extend "http://ns.adobe.com/Extensibility/1.0/">
	<!ENTITY ns_ai "http://ns.adobe.com/AdobeIllustrator/10.0/">
	<!ENTITY ns_graphs "http://ns.adobe.com/Graphs/1.0/">
	<!ENTITY ns_vars "http://ns.adobe.com/Variables/1.0/">
	<!ENTITY ns_imrep "http://ns.adobe.com/ImageReplacement/1.0/">
	<!ENTITY ns_sfw "http://ns.adobe.com/SaveForWeb/1.0/">
	<!ENTITY ns_custom "http://ns.adobe.com/GenericCustomNamespace/1.0/">
	<!ENTITY ns_adobe_xpath "http://ns.adobe.com/XPath/1.0/">
]>
<svg version="1.1" id="Слой_1" xmlns:x="&ns_extend;" xmlns:i="&ns_ai;" xmlns:graph="&ns_graphs;"
	 xmlns="http://www.w3.org/2000/svg" xmlns:xlink="http://www.w3.org/1999/xlink" x="0px" y="0px" width="800px" height="600px"
	 viewBox="0 0 800 600" enable-background="new 0 0 800 600" xml:space="preserve">
<metadata>
	<sfw  xmlns="&ns_sfw;">
		<slices></slices>
		<sliceSourceBounds  y="-580.156" x="7" height="563.156" width="767" bottomLeftOrigin="true"></sliceSourceBounds>
	</sfw>
</metadata>
<g opacity="0.1">
	<circle opacity="0.5" fill="#FFFFFF" cx="82.5" cy="136.5" r="54.5"/>
	<g>
		<g>
			<path fill="#FF0049" d="M43.394,133.129v17.404h9.707v-26.637h3.812v26.637h9.662v-26.637h3.856v29.873H39.583v-20.64H43.394z"/>
			<path fill="#FFFFFF" d="M77.12,124.25c1.862-0.31,4.299-0.576,7.402-0.576c3.812,0,6.605,0.887,8.376,2.482
				c1.641,1.418,2.616,3.59,2.616,6.25c0,2.704-0.798,4.831-2.306,6.383c-2.037,2.171-5.361,3.28-9.128,3.28
				c-1.153,0-2.218-0.044-3.103-0.267v11.967H77.12V124.25z M80.977,138.656c0.842,0.222,1.905,0.31,3.192,0.31
				c4.653,0,7.489-2.26,7.489-6.382c0-3.946-2.792-5.851-7.047-5.851c-1.685,0-2.97,0.132-3.634,0.31V138.656z"/>
			<path fill="#FFFFFF" d="M104.333,123.896v12.587c0,4.742-0.088,8.643-0.355,12.632l0.088,0.044
				c1.508-3.103,3.368-6.338,5.54-9.884l9.663-15.38h3.856v12.639h-3.634c0-4.832,0.043-3.862,0.355-7.63l-0.134-0.044
				c-1.462,3.279-3.501,6.737-5.541,10.061l-9.352,14.849h-4.123v-29.873H104.333z"/>
		</g>
		<g>
			<path fill="#FFFFFF" d="M120.96,139.656h-0.021l-1.151,0.597l-0.23-1.078l1.56-0.806h1.203v6.8h-1.361V139.656z"/>
			<path fill="#FFFFFF" d="M119.538,152.49c0.271,0.157,0.648,0.261,1.014,0.261c0.659,0,1.025-0.407,1.025-0.983
				c0-0.753-0.576-1.076-1.276-1.076h-0.188v-1.006h0.136c0.502-0.01,1.151-0.219,1.151-0.878c0-0.492-0.314-0.784-0.795-0.784
				c-0.303,0-0.607,0.115-0.858,0.271l-0.178-1.036c0.282-0.177,0.837-0.355,1.402-0.355c1.192,0,1.789,0.775,1.789,1.643
				c0,0.679-0.376,1.244-0.974,1.528v0.021c0.66,0.219,1.163,0.805,1.163,1.726c0,1.036-0.795,2.05-2.271,2.05
				c-0.554,0-1.036-0.136-1.339-0.303L119.538,152.49z"/>
		</g>
		<g>
			<path fill="#FF0049" d="M39.603,131.282v-0.92l0.681-0.869c0.879-1.119,1.601-2.051,1.601-3.023c0-0.544-0.304-0.931-0.868-0.931
				c-0.43,0-0.775,0.188-1.026,0.345l-0.241-1.067c0.314-0.199,0.9-0.418,1.517-0.418c1.486,0,1.967,0.994,1.967,1.967
				c0,1.276-0.795,2.302-1.58,3.211l-0.409,0.481v0.022h2.083v1.203H39.603z"/>
		</g>
	</g>
</g>
<g opacity="0.3">
	<circle opacity="0.5" fill="#FFFFFF" cx="279.578" cy="64.578" r="20.578"/>
	<g>
		<g>
			<path fill="#FF0049" d="M264.812,63.305v6.572h3.665V59.819h1.439v10.058h3.648V59.819h1.456v11.279h-11.647v-7.793H264.812z"/>
			<path fill="#FFFFFF" d="M277.547,59.953c0.703-0.117,1.623-0.217,2.794-0.217c1.439,0,2.494,0.335,3.163,0.937
				c0.62,0.536,0.987,1.356,0.987,2.36c0,1.021-0.301,1.824-0.871,2.41c-0.769,0.819-2.024,1.238-3.446,1.238
				c-0.436,0-0.838-0.017-1.172-0.101v4.519h-1.456V59.953z M279.003,65.392c0.318,0.083,0.719,0.117,1.205,0.117
				c1.757,0,2.828-0.853,2.828-2.41c0-1.49-1.055-2.209-2.661-2.209c-0.636,0-1.122,0.05-1.373,0.117V65.392z"/>
			<path fill="#FFFFFF" d="M287.821,59.819v4.752c0,1.791-0.033,3.264-0.134,4.77l0.034,0.017c0.569-1.172,1.271-2.394,2.091-3.732
				l3.649-5.807h1.456v4.772h-1.372c0-1.824,0.017-1.458,0.134-2.881l-0.05-0.017c-0.552,1.238-1.322,2.544-2.092,3.799
				l-3.531,5.606h-1.557V59.819H287.821z"/>
		</g>
		<g>
			<path fill="#FFFFFF" d="M294.1,65.77h-0.007l-0.435,0.226l-0.087-0.407l0.589-0.304h0.454v2.568H294.1V65.77z"/>
			<path fill="#FFFFFF" d="M293.563,70.616c0.103,0.059,0.245,0.099,0.383,0.099c0.249,0,0.387-0.154,0.387-0.372
				c0-0.284-0.217-0.406-0.482-0.406h-0.071v-0.38h0.051c0.189-0.003,0.435-0.083,0.435-0.332c0-0.186-0.119-0.296-0.3-0.296
				c-0.115,0-0.229,0.043-0.324,0.102l-0.067-0.391c0.107-0.067,0.316-0.134,0.53-0.134c0.451,0,0.675,0.293,0.675,0.621
				c0,0.256-0.142,0.47-0.368,0.577v0.008c0.249,0.083,0.439,0.304,0.439,0.651c0,0.391-0.301,0.774-0.857,0.774
				c-0.209,0-0.391-0.051-0.506-0.114L293.563,70.616z"/>
		</g>
		<g>
			<path fill="#FF0049" d="M263.381,62.608V62.26l0.257-0.328c0.332-0.423,0.604-0.774,0.604-1.142c0-0.206-0.114-0.352-0.328-0.352
				c-0.162,0-0.292,0.071-0.387,0.13l-0.091-0.403c0.118-0.075,0.34-0.158,0.573-0.158c0.561,0,0.743,0.375,0.743,0.743
				c0,0.482-0.3,0.869-0.597,1.212l-0.154,0.182v0.008h0.787v0.454H263.381z"/>
		</g>
	</g>
</g>
<g opacity="0.4">
	<circle opacity="0.5" fill="#FFFFFF" cx="380.5" cy="208.5" r="38.5"/>
	<g>
		<g>
			<path fill="#FF0049" d="M352.875,206.119v12.295h6.857v-18.817h2.693v18.817h6.826v-18.817h2.724v21.103h-21.792v-14.581H352.875
				z"/>
			<path fill="#FFFFFF" d="M376.7,199.846c1.315-0.219,3.037-0.407,5.229-0.407c2.693,0,4.666,0.626,5.917,1.753
				c1.159,1.002,1.848,2.537,1.848,4.415c0,1.91-0.563,3.413-1.629,4.509c-1.439,1.534-3.788,2.317-6.448,2.317
				c-0.815,0-1.567-0.032-2.192-0.188v8.454H376.7V199.846z M379.424,210.023c0.595,0.157,1.346,0.219,2.254,0.219
				c3.288,0,5.292-1.597,5.292-4.508c0-2.788-1.973-4.133-4.978-4.133c-1.19,0-2.099,0.094-2.568,0.219V210.023z"/>
			<path fill="#FFFFFF" d="M395.923,199.596v8.892c0,3.35-0.062,6.105-0.25,8.923l0.062,0.031c1.065-2.191,2.379-4.478,3.913-6.982
				l6.827-10.865h2.724v8.928h-2.567c0-3.413,0.031-2.729,0.251-5.39l-0.094-0.031c-1.034,2.316-2.474,4.759-3.915,7.107
				l-6.605,10.489h-2.913v-21.103H395.923z"/>
		</g>
		<g>
			<path fill="#FFFFFF" d="M407.669,210.729h-0.015l-0.812,0.421l-0.164-0.761l1.103-0.569h0.85v4.804h-0.961V210.729z"/>
			<path fill="#FFFFFF" d="M406.664,219.796c0.192,0.111,0.458,0.184,0.717,0.184c0.465,0,0.725-0.288,0.725-0.695
				c0-0.532-0.406-0.76-0.902-0.76h-0.133v-0.71h0.096c0.354-0.007,0.814-0.154,0.814-0.621c0-0.348-0.223-0.554-0.562-0.554
				c-0.215,0-0.429,0.081-0.606,0.192l-0.126-0.732c0.2-0.125,0.592-0.251,0.991-0.251c0.843,0,1.264,0.547,1.264,1.161
				c0,0.48-0.267,0.879-0.688,1.08v0.015c0.467,0.155,0.822,0.568,0.822,1.219c0,0.732-0.562,1.449-1.604,1.449
				c-0.392,0-0.731-0.096-0.946-0.214L406.664,219.796z"/>
		</g>
		<g>
			<path fill="#FF0049" d="M350.196,204.814v-0.65l0.481-0.614c0.621-0.791,1.131-1.449,1.131-2.136
				c0-0.385-0.214-0.658-0.613-0.658c-0.304,0-0.548,0.133-0.725,0.244l-0.17-0.754c0.222-0.141,0.636-0.295,1.072-0.295
				c1.049,0,1.39,0.702,1.39,1.39c0,0.901-0.562,1.626-1.116,2.269l-0.289,0.339v0.016h1.471v0.85H350.196z"/>
		</g>
	</g>
</g>
<g opacity="0.7">
	<circle opacity="0.5" fill="#FFFFFF" cx="719.5" cy="71.5" r="54.5"/>
	<g>
		<g>
			<path fill="#FF0049" d="M680.395,68.129v17.404h9.706V58.896h3.812v26.637h9.662V58.896h3.856v29.873h-30.849v-20.64H680.395z"/>
			<path fill="#FFFFFF" d="M714.12,59.25c1.862-0.31,4.3-0.576,7.401-0.576c3.812,0,6.605,0.887,8.377,2.482
				c1.641,1.418,2.615,3.59,2.615,6.25c0,2.704-0.797,4.831-2.306,6.383c-2.037,2.171-5.361,3.28-9.128,3.28
				c-1.154,0-2.219-0.044-3.104-0.267v11.967h-3.856V59.25z M717.977,73.656c0.842,0.222,1.904,0.31,3.191,0.31
				c4.654,0,7.49-2.26,7.49-6.382c0-3.946-2.793-5.851-7.047-5.851c-1.686,0-2.971,0.132-3.635,0.31V73.656z"/>
			<path fill="#FFFFFF" d="M741.332,58.896v12.587c0,4.742-0.088,8.643-0.354,12.632l0.089,0.044
				c1.508-3.103,3.367-6.338,5.539-9.884l9.664-15.38h3.855v12.639h-3.634c0-4.832,0.044-3.862,0.354-7.63l-0.133-0.044
				c-1.463,3.279-3.502,6.737-5.541,10.061l-9.352,14.849h-4.123V58.896H741.332z"/>
		</g>
		<g>
			<path fill="#FFFFFF" d="M757.96,74.656h-0.021l-1.151,0.597l-0.23-1.078l1.56-0.806h1.203v6.8h-1.36V74.656z"/>
			<path fill="#FFFFFF" d="M756.538,87.49c0.271,0.157,0.647,0.261,1.015,0.261c0.658,0,1.025-0.407,1.025-0.983
				c0-0.753-0.576-1.076-1.277-1.076h-0.188v-1.006h0.135c0.502-0.01,1.152-0.219,1.152-0.878c0-0.492-0.314-0.784-0.796-0.784
				c-0.304,0-0.606,0.115-0.858,0.271l-0.178-1.036c0.283-0.177,0.838-0.355,1.402-0.355c1.193,0,1.789,0.775,1.789,1.643
				c0,0.679-0.377,1.244-0.975,1.528v0.021c0.66,0.219,1.163,0.805,1.163,1.726c0,1.036-0.796,2.05-2.271,2.05
				c-0.555,0-1.036-0.136-1.34-0.303L756.538,87.49z"/>
		</g>
		<g>
			<path fill="#FF0049" d="M676.603,66.282v-0.92l0.681-0.869c0.879-1.119,1.602-2.051,1.602-3.023c0-0.544-0.305-0.931-0.869-0.931
				c-0.43,0-0.775,0.188-1.025,0.345l-0.24-1.067c0.313-0.199,0.899-0.418,1.517-0.418c1.485,0,1.968,0.994,1.968,1.967
				c0,1.276-0.796,2.302-1.58,3.211l-0.409,0.481v0.022h2.083v1.203H676.603z"/>
		</g>
	</g>
</g>
<g opacity="0.3">
	<circle opacity="0.5" fill="#FFFFFF" cx="91.06" cy="409.061" r="84.06"/>
	<g>
		<g>
			<path fill="#FF0049" d="M30.744,403.86v26.845h14.971v-41.084h5.879v41.084h14.902v-41.084h5.948v46.075h-47.58V403.86H30.744z"
				/>
			<path fill="#FFFFFF" d="M82.762,390.166c2.873-0.479,6.633-0.889,11.416-0.889c5.881,0,10.188,1.367,12.921,3.829
				c2.53,2.187,4.033,5.536,4.033,9.64c0,4.169-1.229,7.449-3.556,9.845c-3.143,3.347-8.27,5.058-14.079,5.058
				c-1.78,0-3.422-0.067-4.787-0.409v18.457h-5.948V390.166z M88.71,412.386c1.299,0.341,2.938,0.476,4.923,0.476
				c7.179,0,11.553-3.485,11.553-9.841c0-6.087-4.308-9.025-10.869-9.025c-2.6,0-4.582,0.204-5.606,0.479V412.386z"/>
			<path fill="#FFFFFF" d="M124.733,389.621v19.413c0,7.313-0.136,13.332-0.547,19.483l0.138,0.069
				c2.325-4.787,5.193-9.777,8.543-15.246l14.905-23.72h5.947v19.493h-5.604c0-7.453,0.067-5.959,0.546-11.77l-0.204-0.069
				c-2.257,5.058-5.401,10.393-8.547,15.518l-14.424,22.903h-6.359v-46.075H124.733z"/>
		</g>
		<g>
			<path fill="#FFFFFF" d="M150.38,413.928h-0.031l-1.776,0.919l-0.355-1.661l2.406-1.242h1.855v10.487h-2.099V413.928z"/>
			<path fill="#FFFFFF" d="M148.188,433.724c0.418,0.24,0.998,0.401,1.564,0.401c1.016,0,1.582-0.628,1.582-1.517
				c0-1.163-0.889-1.659-1.971-1.659h-0.289v-1.552h0.208c0.774-0.016,1.777-0.338,1.777-1.355c0-0.76-0.485-1.208-1.228-1.208
				c-0.469,0-0.936,0.176-1.324,0.418l-0.274-1.6c0.438-0.272,1.293-0.548,2.163-0.548c1.841,0,2.76,1.196,2.76,2.535
				c0,1.047-0.581,1.919-1.503,2.357v0.031c1.018,0.339,1.794,1.241,1.794,2.661c0,1.599-1.228,3.164-3.502,3.164
				c-0.855,0-1.599-0.21-2.067-0.468L148.188,433.724z"/>
		</g>
		<g>
			<path fill="#FF0049" d="M24.896,401.013v-1.421l1.05-1.339c1.355-1.727,2.471-3.163,2.471-4.663c0-0.839-0.471-1.436-1.341-1.436
				c-0.663,0-1.196,0.289-1.582,0.531l-0.37-1.646c0.483-0.307,1.388-0.645,2.339-0.645c2.291,0,3.035,1.533,3.035,3.034
				c0,1.969-1.228,3.55-2.437,4.952l-0.632,0.742v0.035h3.213v1.854H24.896z"/>
		</g>
	</g>
</g>
<g opacity="0.5">
	<circle opacity="0.5" fill="#FFFFFF" cx="549" cy="436" r="45"/>
	<g>
		<g>
			<path fill="#FF0049" d="M516.711,433.217v14.37h8.014v-21.993h3.148v21.993h7.978v-21.993h3.185v24.665h-25.472v-17.042H516.711z
				"/>
			<path fill="#FFFFFF" d="M544.559,425.886c1.537-0.257,3.549-0.477,6.11-0.477c3.147,0,5.454,0.732,6.917,2.05
				c1.354,1.171,2.159,2.965,2.159,5.161c0,2.231-0.657,3.988-1.903,5.27c-1.682,1.792-4.428,2.708-7.537,2.708
				c-0.953,0-1.832-0.036-2.562-0.22v9.881h-3.184V425.886z M547.742,437.78c0.695,0.183,1.572,0.255,2.635,0.255
				c3.844,0,6.186-1.866,6.186-5.269c0-3.259-2.307-4.832-5.819-4.832c-1.392,0-2.452,0.11-3.001,0.257V437.78z"/>
			<path fill="#FFFFFF" d="M567.026,425.594v10.393c0,3.915-0.072,7.137-0.292,10.43l0.072,0.037
				c1.246-2.562,2.781-5.233,4.574-8.161l7.979-12.698h3.183v10.436h-3c0-3.99,0.037-3.19,0.293-6.301l-0.109-0.037
				c-1.208,2.707-2.892,5.563-4.576,8.307l-7.721,12.261h-3.404v-24.665H567.026z"/>
		</g>
		<g>
			<path fill="#FFFFFF" d="M580.756,438.606h-0.017l-0.951,0.491l-0.19-0.889l1.288-0.666h0.993v5.615h-1.123V438.606z"/>
			<path fill="#FFFFFF" d="M579.582,449.203c0.225,0.129,0.535,0.215,0.838,0.215c0.543,0,0.847-0.336,0.847-0.812
				c0-0.623-0.476-0.889-1.055-0.889h-0.155v-0.831h0.111c0.414-0.008,0.951-0.181,0.951-0.726c0-0.406-0.26-0.646-0.656-0.646
				c-0.251,0-0.501,0.095-0.709,0.225l-0.146-0.856c0.233-0.146,0.691-0.294,1.157-0.294c0.985,0,1.478,0.641,1.478,1.357
				c0,0.561-0.312,1.027-0.805,1.262v0.017c0.545,0.182,0.96,0.665,0.96,1.425c0,0.855-0.657,1.693-1.874,1.693
				c-0.459,0-0.855-0.111-1.107-0.25L579.582,449.203z"/>
		</g>
		<g>
			<path fill="#FF0049" d="M513.58,431.691v-0.76l0.562-0.717c0.725-0.925,1.321-1.693,1.321-2.497c0-0.449-0.251-0.769-0.717-0.769
				c-0.354,0-0.64,0.155-0.847,0.285l-0.199-0.882c0.26-0.164,0.743-0.345,1.253-0.345c1.227,0,1.624,0.821,1.624,1.624
				c0,1.054-0.656,1.9-1.305,2.651l-0.337,0.397v0.019h1.72v0.992H513.58z"/>
		</g>
	</g>
</g>
<g opacity="0.05">
	<circle opacity="0.5" fill="#FFFFFF" cx="35.578" cy="559.578" r="20.578"/>
	<g>
		<g>
			<path fill="#FF0049" d="M20.812,558.305v6.572h3.665v-10.058h1.439v10.058h3.648v-10.058h1.456v11.279H19.374v-7.794H20.812z"/>
			<path fill="#FFFFFF" d="M33.547,554.953c0.703-0.117,1.623-0.218,2.795-0.218c1.439,0,2.494,0.335,3.162,0.937
				c0.62,0.536,0.988,1.356,0.988,2.36c0,1.021-0.301,1.824-0.871,2.41c-0.77,0.819-2.024,1.238-3.446,1.238
				c-0.436,0-0.838-0.017-1.172-0.101v4.519h-1.456V554.953z M35.003,560.393c0.318,0.083,0.719,0.116,1.205,0.116
				c1.757,0,2.828-0.853,2.828-2.409c0-1.49-1.055-2.209-2.661-2.209c-0.636,0-1.121,0.05-1.372,0.117V560.393z"/>
			<path fill="#FFFFFF" d="M43.821,554.819v4.753c0,1.79-0.033,3.264-0.134,4.77l0.033,0.017c0.57-1.172,1.271-2.394,2.092-3.731
				l3.648-5.808h1.457v4.772h-1.373c0-1.824,0.018-1.459,0.135-2.882l-0.051-0.017c-0.553,1.238-1.322,2.544-2.092,3.799
				l-3.531,5.606h-1.557v-11.279H43.821z"/>
		</g>
		<g>
			<path fill="#FFFFFF" d="M50.1,560.77h-0.008l-0.435,0.226l-0.087-0.407l0.589-0.305h0.454v2.568H50.1V560.77z"/>
			<path fill="#FFFFFF" d="M49.562,565.615c0.104,0.06,0.245,0.1,0.384,0.1c0.249,0,0.387-0.154,0.387-0.372
				c0-0.284-0.218-0.406-0.481-0.406H49.78v-0.38h0.051c0.189-0.004,0.435-0.082,0.435-0.332c0-0.186-0.118-0.295-0.3-0.295
				c-0.114,0-0.229,0.043-0.324,0.102l-0.067-0.391c0.107-0.067,0.316-0.135,0.529-0.135c0.451,0,0.676,0.293,0.676,0.621
				c0,0.256-0.143,0.469-0.367,0.576v0.008c0.248,0.083,0.438,0.305,0.438,0.652c0,0.391-0.301,0.773-0.857,0.773
				c-0.21,0-0.392-0.051-0.506-0.113L49.562,565.615z"/>
		</g>
		<g>
			<path fill="#FF0049" d="M19.381,557.607v-0.348l0.257-0.327c0.332-0.423,0.604-0.774,0.604-1.142
				c0-0.205-0.114-0.352-0.328-0.352c-0.162,0-0.292,0.07-0.387,0.131l-0.091-0.404c0.118-0.074,0.34-0.157,0.573-0.157
				c0.561,0,0.743,0.375,0.743,0.743c0,0.481-0.3,0.869-0.597,1.212l-0.154,0.182v0.009h0.787v0.453H19.381z"/>
		</g>
	</g>
</g>
<g opacity="0.3">
	<circle opacity="0.5" fill="#FFFFFF" cx="733.76" cy="540.76" r="27.76"/>
	<g>
		<g>
			<path fill="#FF0049" d="M713.841,539.042v8.865h4.945v-13.566h1.94v13.566h4.92v-13.566h1.967v15.216h-15.715v-10.515H713.841z"
				/>
			<path fill="#FFFFFF" d="M731.02,534.521c0.947-0.158,2.188-0.294,3.771-0.294c1.94,0,3.363,0.451,4.266,1.263
				c0.835,0.724,1.332,1.831,1.332,3.187c0,1.375-0.404,2.46-1.175,3.25c-1.036,1.105-2.73,1.671-4.649,1.671
				c-0.587,0-1.129-0.023-1.58-0.136v6.096h-1.964V534.521z M732.983,541.859c0.43,0.11,0.97,0.155,1.628,0.155
				c2.367,0,3.813-1.148,3.813-3.249c0-2.012-1.422-2.98-3.589-2.98c-0.859,0-1.514,0.066-1.853,0.157V541.859z"/>
			<path fill="#FFFFFF" d="M744.879,534.341v6.411c0,2.415-0.043,4.403-0.181,6.435l0.047,0.021c0.769-1.58,1.714-3.229,2.821-5.034
				l4.922-7.833h1.964v6.437h-1.852c0-2.461,0.023-1.968,0.182-3.887l-0.067-0.021c-0.747,1.67-1.785,3.432-2.823,5.124
				l-4.764,7.563h-2.101v-15.216H744.879z"/>
		</g>
		<g>
			<path fill="#FFFFFF" d="M753.35,542.367h-0.01l-0.588,0.304l-0.116-0.55l0.794-0.41h0.613v3.464h-0.693V542.367z"/>
			<path fill="#FFFFFF" d="M752.624,548.904c0.14,0.079,0.331,0.134,0.519,0.134c0.335,0,0.521-0.208,0.521-0.502
				c0-0.384-0.293-0.548-0.649-0.548h-0.097v-0.512h0.068c0.257-0.006,0.588-0.11,0.588-0.447c0-0.253-0.16-0.398-0.406-0.398
				c-0.153,0-0.31,0.057-0.438,0.136l-0.091-0.525c0.146-0.091,0.428-0.184,0.716-0.184c0.608,0,0.91,0.396,0.91,0.839
				c0,0.346-0.191,0.633-0.495,0.776v0.01c0.335,0.112,0.592,0.412,0.592,0.881c0,0.528-0.406,1.044-1.157,1.044
				c-0.283,0-0.527-0.068-0.682-0.153L752.624,548.904z"/>
		</g>
		<g>
			<path fill="#FF0049" d="M711.91,538.102v-0.469l0.347-0.441c0.447-0.571,0.816-1.046,0.816-1.54c0-0.278-0.156-0.476-0.443-0.476
				c-0.219,0-0.395,0.095-0.522,0.178l-0.122-0.546c0.157-0.101,0.457-0.213,0.772-0.213c0.757,0,1.001,0.507,1.001,1.003
				c0,0.65-0.404,1.173-0.804,1.636l-0.209,0.244v0.012h1.062v0.612H711.91z"/>
		</g>
	</g>
</g>
</svg>
