<?xml version="1.0" encoding="utf-8"?>
<!-- Generator: Adobe Illustrator 15.1.0, SVG Export Plug-In . SVG Version: 6.00 Build 0)  -->
<!DOCTYPE svg PUBLIC "-//W3C//DTD SVG 1.1//EN" "http://www.w3.org/Graphics/SVG/1.1/DTD/svg11.dtd" [
	<!ENTITY ns_extend "http://ns.adobe.com/Extensibility/1.0/">
	<!ENTITY ns_ai "http://ns.adobe.com/AdobeIllustrator/10.0/">
	<!ENTITY ns_graphs "http://ns.adobe.com/Graphs/1.0/">
	<!ENTITY ns_vars "http://ns.adobe.com/Variables/1.0/">
	<!ENTITY ns_imrep "http://ns.adobe.com/ImageReplacement/1.0/">
	<!ENTITY ns_sfw "http://ns.adobe.com/SaveForWeb/1.0/">
	<!ENTITY ns_custom "http://ns.adobe.com/GenericCustomNamespace/1.0/">
	<!ENTITY ns_adobe_xpath "http://ns.adobe.com/XPath/1.0/">
]>
<svg version="1.1" id="Слой_1" xmlns:x="&ns_extend;" xmlns:i="&ns_ai;" xmlns:graph="&ns_graphs;"
	 xmlns="http://www.w3.org/2000/svg" xmlns:xlink="http://www.w3.org/1999/xlink" x="0px" y="0px" width="30px" height="110px"
	 viewBox="0 0 30 110" enable-background="new 0 0 30 110" xml:space="preserve">
<metadata>
	<sfw  xmlns="&ns_sfw;">
		<slices></slices>
		<sliceSourceBounds  x="1.363" y="-110" width="26.625" height="109" bottomLeftOrigin="true"></sliceSourceBounds>
	</sfw>
</metadata>
<g>
	<circle fill="#FFFFFF" cx="14.676" cy="14.312" r="13.312"/>
	<path fill="#FFDC2D" d="M19.93,3.453h-3.556l0,0c-3.493,0-6.456,2.274-6.456,6.692c0,2.65,1.435,4.605,3.993,5.569l-4.772,7.39
		c-0.156,0.241,0,0.428,0.249,0.428h2.215c0.187,0,0.312-0.053,0.373-0.187l4.336-7.256h1.561v7.256c0,0.08,0.092,0.187,0.217,0.187
		h1.935c0.188,0,0.251-0.08,0.251-0.213V3.721C20.274,3.533,20.148,3.453,19.93,3.453z M17.872,14.375h-1.311
		c-2.058,0-4.055-1.285-4.055-4.498c0-3.347,1.871-4.713,3.774-4.713h1.591V14.375z"/>
</g>
<g>
	<circle fill="#FFFFFF" cx="14.676" cy="41.77" r="13.312"/>
	<path fill="#FFDC2D" d="M17.928,40.974v-0.086c0.713-0.301,1.272-0.766,1.676-1.398c0.409-0.632,0.609-1.352,0.609-2.163
		c0-0.701-0.149-1.317-0.442-1.854c-0.293-0.534-0.738-0.964-1.332-1.283c-0.549-0.296-1.138-0.492-1.767-0.583
		c-0.627-0.095-1.553-0.141-2.771-0.141H8.034l0,0v16.608h6.647c1.154,0,2.1-0.105,2.846-0.313c0.75-0.21,1.437-0.556,2.062-1.046
		c0.529-0.412,0.945-0.927,1.259-1.551c0.312-0.624,0.47-1.352,0.47-2.177c0-1.127-0.309-2.025-0.927-2.692
		C19.773,41.63,18.953,41.192,17.928,40.974z M12.184,36.512h0.289c0.743,0,1.303,0.003,1.679,0.015
		c0.377,0.012,0.701,0.076,0.976,0.199c0.293,0.125,0.504,0.332,0.642,0.613c0.137,0.282,0.207,0.556,0.207,0.826
		c0,0.363-0.066,0.682-0.191,0.961c-0.125,0.275-0.358,0.491-0.688,0.646c-0.305,0.141-0.602,0.217-0.887,0.232
		c-0.286,0.016-0.788,0.022-1.501,0.022h-0.524V36.512z M16.759,45.984c-0.177,0.317-0.448,0.556-0.83,0.72
		c-0.43,0.187-0.857,0.284-1.271,0.301c-0.414,0.015-1.164,0.022-2.25,0.022h-0.224V42.87l0,0h0.77c0.743,0,1.335,0.004,1.778,0.015
		c0.441,0.011,0.792,0.065,1.042,0.165c0.415,0.147,0.727,0.366,0.938,0.658c0.209,0.29,0.311,0.689,0.311,1.204
		C17.021,45.312,16.935,45.669,16.759,45.984z"/>
</g>
<g>
	<circle fill="#FFFFFF" cx="14.676" cy="69.229" r="13.312"/>
	<path fill="#FFDC2D" d="M12.08,80.212V69.973H9.374v-3.687h2.707v-3.149c0-2.475,1.601-4.746,5.285-4.746
		c1.492,0,2.595,0.143,2.595,0.143l-0.087,3.442c0,0-1.125-0.01-2.353-0.01c-1.329,0-1.543,0.611-1.543,1.628v2.692h4l-0.174,3.687
		h-3.826v10.239H12.08"/>
</g>
<g>
	<circle fill="#FFFFFF" cx="14.676" cy="96.688" r="13.312"/>
	<path fill="#FFDC2D" d="M22.407,88.379c-0.552-0.01-1.833,0.178-3.972,1.611c-1.166-0.291-2.407-0.435-3.65-0.435
		c-1.367,0-2.75,0.175-4.039,0.526c-3.072-2.097-4.427-1.667-4.427-1.667c-0.886,2.213-0.338,3.853-0.172,4.26
		c-1.041,1.122-1.676,2.559-1.676,4.315c0,1.326,0.151,2.515,0.52,3.551c0.02,0.078,0.014,0.062,0.048,0.128
		c0.081,0.216,0.171,0.424,0.273,0.625c0.034,0.072,0.066,0.126,0.066,0.126c1.038,1.934,3.082,3.18,6.719,3.573l5.5,0.006
		c3.88-0.382,5.74-1.638,6.599-3.583l0.055-0.128c0.082-0.195,0.152-0.399,0.347-1.092c0.193-0.688,0.279-1.878,0.279-3.206
		c0-1.909-0.717-3.435-1.879-4.595c0.202-0.657,0.476-2.115-0.271-3.98C22.729,88.415,22.624,88.383,22.407,88.379L22.407,88.379z
		 M18.072,95.375c0.896,0,1.664,0.153,2.24,0.759l0,0c0.721,0.757,1.142,1.672,1.142,2.658c0,4.596-2.957,4.722-6.605,4.722
		s-6.604-0.638-6.604-4.722c0-0.982,0.416-1.888,1.127-2.641c1.188-1.258,3.198-0.593,5.477-0.593
		C16.02,95.559,17.119,95.381,18.072,95.375L18.072,95.375z M11.278,96.731c-0.759,0-1.374,1.024-1.374,2.294
		c0,1.267,0.615,2.293,1.374,2.293s1.375-1.026,1.375-2.293C12.652,97.758,12.037,96.733,11.278,96.731L11.278,96.731z
		 M18.652,96.731c-0.76,0-1.375,1.024-1.375,2.294c0,1.267,0.615,2.293,1.375,2.293c0.758,0,1.373-1.026,1.373-2.293
		C20.025,97.758,19.41,96.733,18.652,96.731L18.652,96.731z"/>
</g>
</svg>
