<?xml version="1.0" encoding="utf-8"?>
<!-- Generator: Adobe Illustrator 15.1.0, SVG Export Plug-In . SVG Version: 6.00 Build 0)  -->
<!DOCTYPE svg PUBLIC "-//W3C//DTD SVG 1.1//EN" "http://www.w3.org/Graphics/SVG/1.1/DTD/svg11.dtd" [
	<!ENTITY ns_extend "http://ns.adobe.com/Extensibility/1.0/">
	<!ENTITY ns_ai "http://ns.adobe.com/AdobeIllustrator/10.0/">
	<!ENTITY ns_graphs "http://ns.adobe.com/Graphs/1.0/">
	<!ENTITY ns_vars "http://ns.adobe.com/Variables/1.0/">
	<!ENTITY ns_imrep "http://ns.adobe.com/ImageReplacement/1.0/">
	<!ENTITY ns_sfw "http://ns.adobe.com/SaveForWeb/1.0/">
	<!ENTITY ns_custom "http://ns.adobe.com/GenericCustomNamespace/1.0/">
	<!ENTITY ns_adobe_xpath "http://ns.adobe.com/XPath/1.0/">
]>
<svg version="1.1" id="Слой_1" xmlns:x="&ns_extend;" xmlns:i="&ns_ai;" xmlns:graph="&ns_graphs;"
	 xmlns="http://www.w3.org/2000/svg" xmlns:xlink="http://www.w3.org/1999/xlink" x="0px" y="0px" width="800px" height="600px"
	 viewBox="0 0 800 600" enable-background="new 0 0 800 600" xml:space="preserve">
<metadata>
	<sfw  xmlns="&ns_sfw;">
		<slices></slices>
		<sliceSourceBounds  y="-230.656" x="-175.5" height="557.887" width="746.52" bottomLeftOrigin="true"></sliceSourceBounds>
	</sfw>
</metadata>
<g opacity="0.4">
	<circle opacity="0.5" fill="#FFEC00" enable-background="new    " cx="454.161" cy="266.259" r="38.5"/>
	<g>
		<g>
			<path fill="#FF0049" d="M426.536,263.878v12.295h6.856v-18.817h2.693v18.817h6.826v-18.817h2.725v21.103h-21.793v-14.581H426.536
				z"/>
			<path fill="#FFFFFF" d="M450.361,257.605c1.314-0.219,3.037-0.407,5.229-0.407c2.693,0,4.666,0.626,5.917,1.753
				c1.159,1.002,1.85,2.537,1.85,4.415c0,1.91-0.563,3.413-1.629,4.509c-1.439,1.534-3.79,2.317-6.448,2.317
				c-0.814,0-1.567-0.032-2.192-0.188v8.454h-2.726V257.605z M453.085,267.782c0.595,0.157,1.347,0.219,2.255,0.219
				c3.287,0,5.291-1.597,5.291-4.508c0-2.788-1.973-4.133-4.978-4.133c-1.19,0-2.099,0.094-2.568,0.219V267.782z"/>
			<path fill="#FFFFFF" d="M469.584,257.355v8.892c0,3.35-0.062,6.105-0.251,8.923l0.062,0.031c1.064-2.191,2.379-4.478,3.914-6.982
				l6.824-10.865h2.726v8.928h-2.567c0-3.413,0.031-2.729,0.251-5.39l-0.094-0.031c-1.034,2.316-2.474,4.759-3.915,7.107
				l-6.605,10.489h-2.91v-21.104h2.565V257.355L469.584,257.355z"/>
		</g>
		<g>
			<path fill="#FFFFFF" d="M481.33,268.488h-0.015l-0.812,0.421l-0.164-0.761l1.104-0.569h0.85v4.804h-0.961L481.33,268.488
				L481.33,268.488z"/>
			<path fill="#FFFFFF" d="M480.325,277.555c0.192,0.111,0.458,0.184,0.717,0.184c0.465,0,0.727-0.288,0.727-0.695
				c0-0.532-0.406-0.76-0.902-0.76h-0.133v-0.71h0.096c0.354-0.007,0.814-0.154,0.814-0.621c0-0.348-0.225-0.554-0.562-0.554
				c-0.215,0-0.429,0.081-0.604,0.192l-0.126-0.732c0.198-0.125,0.592-0.251,0.989-0.251c0.845,0,1.266,0.547,1.266,1.161
				c0,0.48-0.269,0.879-0.688,1.08v0.015c0.467,0.155,0.822,0.568,0.822,1.219c0,0.732-0.562,1.449-1.604,1.449
				c-0.392,0-0.729-0.096-0.944-0.214L480.325,277.555z"/>
		</g>
		<g>
			<path fill="#FF0049" d="M423.857,262.573v-0.65l0.48-0.614c0.621-0.791,1.131-1.449,1.131-2.136c0-0.385-0.213-0.658-0.613-0.658
				c-0.303,0-0.547,0.133-0.725,0.244l-0.17-0.754c0.223-0.141,0.637-0.295,1.072-0.295c1.049,0,1.391,0.702,1.391,1.39
				c0,0.901-0.562,1.626-1.117,2.269l-0.289,0.339v0.016h1.472v0.85L423.857,262.573L423.857,262.573z"/>
		</g>
	</g>
</g>
<g opacity="0.7">
	<circle opacity="0.5" fill="#FFEC00" enable-background="new    " cx="716" cy="77.769" r="54.5"/>
	<g>
		<g>
			<path fill="#FF0049" d="M676.895,74.398v17.404h9.706V65.165h3.812v26.637h9.662V65.165h3.854v29.873h-30.849v-20.64H676.895z"/>
			<path fill="#FFFFFF" d="M710.62,65.519c1.862-0.31,4.3-0.576,7.401-0.576c3.812,0,6.604,0.887,8.377,2.482
				c1.641,1.418,2.613,3.59,2.613,6.25c0,2.704-0.797,4.831-2.306,6.383c-2.037,2.171-5.361,3.28-9.128,3.28
				c-1.154,0-2.219-0.044-3.104-0.267v11.967h-3.854L710.62,65.519L710.62,65.519z M714.477,79.925
				c0.844,0.222,1.904,0.31,3.191,0.31c4.654,0,7.49-2.26,7.49-6.382c0-3.946-2.793-5.851-7.047-5.851
				c-1.688,0-2.973,0.132-3.637,0.31L714.477,79.925L714.477,79.925z"/>
			<path fill="#FFFFFF" d="M737.832,65.165v12.587c0,4.742-0.088,8.643-0.354,12.632l0.091,0.044
				c1.508-3.103,3.365-6.338,5.538-9.884l9.663-15.38h3.855v12.639h-3.634c0-4.832,0.044-3.862,0.354-7.63l-0.133-0.044
				c-1.463,3.279-3.502,6.737-5.541,10.061l-9.352,14.849h-4.123V65.165H737.832z"/>
		</g>
		<g>
			<path fill="#FFFFFF" d="M754.46,80.925h-0.021l-1.151,0.597l-0.23-1.078l1.562-0.806h1.203v6.8h-1.36L754.46,80.925
				L754.46,80.925z"/>
			<path fill="#FFFFFF" d="M753.038,93.759c0.271,0.157,0.646,0.261,1.015,0.261c0.658,0,1.025-0.407,1.025-0.983
				c0-0.753-0.576-1.076-1.277-1.076h-0.188v-1.006h0.135c0.502-0.01,1.152-0.219,1.152-0.878c0-0.492-0.314-0.784-0.796-0.784
				c-0.306,0-0.606,0.115-0.858,0.271l-0.178-1.036c0.283-0.177,0.838-0.355,1.4-0.355c1.193,0,1.789,0.775,1.789,1.643
				c0,0.679-0.377,1.244-0.975,1.528v0.021c0.66,0.219,1.163,0.805,1.163,1.726c0,1.036-0.796,2.05-2.271,2.05
				c-0.555,0-1.034-0.136-1.34-0.303L753.038,93.759z"/>
		</g>
		<g>
			<path fill="#FF0049" d="M673.104,72.551v-0.92l0.682-0.869c0.879-1.119,1.602-2.051,1.602-3.023c0-0.544-0.305-0.931-0.869-0.931
				c-0.43,0-0.773,0.188-1.023,0.345l-0.24-1.067c0.313-0.199,0.899-0.418,1.519-0.418c1.483,0,1.968,0.994,1.968,1.967
				c0,1.276-0.796,2.302-1.58,3.211l-0.409,0.481v0.022h2.083v1.203L673.104,72.551L673.104,72.551z"/>
		</g>
	</g>
</g>
<g opacity="0.3">
	<circle opacity="0.5" fill="#FFEC00" enable-background="new    " cx="191.686" cy="428.404" r="44.679"/>
	<g>
		<g>
			<path fill="#FF0049" d="M159.627,425.64v14.269h7.957v-21.836h3.125v21.836h7.92v-21.836h3.162v24.489h-25.29V425.64H159.627z"/>
			<path fill="#FFFFFF" d="M187.276,418.361c1.526-0.255,3.525-0.473,6.067-0.473c3.126,0,5.415,0.726,6.868,2.035
				c1.345,1.163,2.144,2.942,2.144,5.124c0,2.216-0.653,3.959-1.89,5.232c-1.67,1.779-4.396,2.689-7.483,2.689
				c-0.946,0-1.819-0.036-2.544-0.218v9.811h-3.161V418.361z M190.437,430.172c0.69,0.181,1.562,0.253,2.617,0.253
				c3.815,0,6.141-1.853,6.141-5.23c0-3.236-2.29-4.797-5.777-4.797c-1.382,0-2.436,0.108-2.979,0.255L190.437,430.172
				L190.437,430.172z"/>
			<path fill="#FFFFFF" d="M209.583,418.072v10.317c0,3.887-0.072,7.087-0.291,10.354l0.073,0.037
				c1.236-2.544,2.76-5.196,4.541-8.104l7.922-12.607h3.161v10.361h-2.979c0-3.962,0.036-3.167,0.291-6.257l-0.109-0.036
				c-1.199,2.688-2.871,5.524-4.542,8.248l-7.667,12.174h-3.38v-24.489L209.583,418.072L209.583,418.072z"/>
		</g>
		<g>
			<path fill="#FFFFFF" d="M223.215,430.991h-0.016l-0.944,0.488l-0.189-0.883l1.279-0.659h0.986v5.573h-1.116V430.991z"/>
			<path fill="#FFFFFF" d="M222.05,441.513c0.222,0.128,0.53,0.213,0.831,0.213c0.54,0,0.841-0.333,0.841-0.806
				c0-0.618-0.473-0.882-1.048-0.882h-0.153v-0.825h0.111c0.411-0.009,0.944-0.181,0.944-0.72c0-0.404-0.258-0.643-0.653-0.643
				c-0.25,0-0.498,0.094-0.704,0.223l-0.146-0.851c0.233-0.145,0.688-0.292,1.15-0.292c0.979,0,1.467,0.636,1.467,1.348
				c0,0.556-0.309,1.02-0.799,1.253v0.017c0.541,0.18,0.954,0.658,0.954,1.413c0,0.851-0.653,1.682-1.861,1.682
				c-0.455,0-0.85-0.111-1.099-0.248L222.05,441.513z"/>
		</g>
		<g>
			<path fill="#FF0049" d="M156.519,424.127v-0.756l0.558-0.711c0.72-0.918,1.313-1.682,1.313-2.479c0-0.446-0.25-0.764-0.712-0.764
				c-0.353,0-0.636,0.154-0.841,0.281l-0.196-0.874c0.256-0.163,0.738-0.344,1.243-0.344c1.217,0,1.613,0.814,1.613,1.612
				c0,1.048-0.652,1.888-1.295,2.633l-0.336,0.395v0.019h1.708v0.984h-3.054V424.127z"/>
		</g>
	</g>
</g>
<g opacity="0.05">
	<circle opacity="0.5" fill="#FFEC00" enable-background="new    " cx="45.578" cy="560.578" r="20.578"/>
	<g>
		<g>
			<path fill="#FF0049" d="M30.812,559.305v6.572h3.665v-10.058h1.439v10.058h3.648v-10.058h1.456v11.277H29.374v-7.794
				L30.812,559.305L30.812,559.305z"/>
			<path fill="#FFFFFF" d="M43.547,555.953c0.703-0.117,1.623-0.218,2.795-0.218c1.439,0,2.494,0.335,3.162,0.937
				c0.62,0.536,0.988,1.356,0.988,2.36c0,1.021-0.301,1.823-0.871,2.41c-0.77,0.817-2.024,1.236-3.446,1.236
				c-0.436,0-0.838-0.017-1.172-0.101v4.519h-1.456V555.953z M45.003,561.393c0.318,0.083,0.719,0.116,1.205,0.116
				c1.757,0,2.828-0.853,2.828-2.409c0-1.488-1.055-2.209-2.661-2.209c-0.636,0-1.121,0.052-1.372,0.117V561.393z"/>
			<path fill="#FFFFFF" d="M53.821,555.819v4.753c0,1.79-0.033,3.264-0.134,4.77l0.033,0.019c0.57-1.173,1.271-2.396,2.092-3.731
				l3.648-5.808h1.457v4.771h-1.373c0-1.824,0.018-1.459,0.135-2.882l-0.051-0.017c-0.553,1.236-1.322,2.544-2.092,3.799
				l-3.531,5.604h-1.557v-11.277H53.821L53.821,555.819z"/>
		</g>
		<g>
			<path fill="#FFFFFF" d="M60.1,561.77h-0.008l-0.435,0.228l-0.087-0.407l0.589-0.305h0.454v2.566H60.1V561.77z"/>
			<path fill="#FFFFFF" d="M59.562,566.615c0.104,0.06,0.245,0.1,0.384,0.1c0.249,0,0.387-0.154,0.387-0.372
				c0-0.284-0.218-0.406-0.481-0.406H59.78v-0.38h0.051c0.189-0.004,0.435-0.082,0.435-0.332c0-0.186-0.118-0.295-0.3-0.295
				c-0.114,0-0.229,0.043-0.324,0.104l-0.067-0.393c0.107-0.065,0.316-0.135,0.529-0.135c0.451,0,0.676,0.293,0.676,0.621
				c0,0.256-0.143,0.469-0.367,0.576v0.008c0.248,0.083,0.438,0.305,0.438,0.652c0,0.391-0.301,0.771-0.857,0.771
				c-0.21,0-0.392-0.051-0.506-0.112L59.562,566.615z"/>
		</g>
		<g>
			<path fill="#FF0049" d="M29.381,558.607v-0.35l0.257-0.327c0.332-0.423,0.604-0.772,0.604-1.142c0-0.205-0.114-0.354-0.328-0.354
				c-0.162,0-0.292,0.07-0.387,0.133l-0.091-0.404c0.118-0.074,0.34-0.157,0.573-0.157c0.561,0,0.743,0.375,0.743,0.743
				c0,0.48-0.3,0.869-0.597,1.212l-0.154,0.182v0.011h0.787v0.451L29.381,558.607L29.381,558.607z"/>
		</g>
	</g>
</g>
<g opacity="0.3">
	<circle opacity="0.5" fill="#FFEC00" enable-background="new    " cx="743.76" cy="541.76" r="27.76"/>
	<g>
		<g>
			<path fill="#FF0049" d="M723.841,540.042v8.865h4.945v-13.566h1.938v13.566h4.922v-13.566h1.967v15.216h-15.715v-10.515H723.841z
				"/>
			<path fill="#FFFFFF" d="M741.02,535.521c0.947-0.158,2.188-0.296,3.771-0.296c1.94,0,3.363,0.451,4.266,1.265
				c0.835,0.724,1.332,1.831,1.332,3.187c0,1.375-0.402,2.46-1.175,3.25c-1.036,1.105-2.729,1.671-4.647,1.671
				c-0.588,0-1.131-0.021-1.58-0.136v6.096h-1.965v-15.035L741.02,535.521L741.02,535.521z M742.983,542.859
				c0.43,0.108,0.97,0.153,1.628,0.153c2.365,0,3.812-1.146,3.812-3.249c0-2.012-1.422-2.979-3.589-2.979
				c-0.859,0-1.514,0.064-1.854,0.157L742.983,542.859L742.983,542.859z"/>
			<path fill="#FFFFFF" d="M754.879,535.341v6.411c0,2.415-0.043,4.403-0.181,6.436l0.047,0.021c0.769-1.58,1.714-3.229,2.821-5.034
				l4.922-7.833h1.964v6.438H762.6c0-2.461,0.023-1.97,0.184-3.889l-0.067-0.021c-0.747,1.67-1.785,3.432-2.823,5.124l-4.764,7.562
				h-2.101v-15.216H754.879z"/>
		</g>
		<g>
			<path fill="#FFFFFF" d="M763.35,543.367h-0.01l-0.588,0.304l-0.116-0.55l0.794-0.41h0.613v3.464h-0.693V543.367L763.35,543.367z"
				/>
			<path fill="#FFFFFF" d="M762.624,549.904c0.14,0.079,0.331,0.134,0.519,0.134c0.336,0,0.521-0.208,0.521-0.502
				c0-0.384-0.293-0.548-0.649-0.548h-0.097v-0.514h0.068c0.257-0.006,0.588-0.108,0.588-0.445c0-0.253-0.16-0.398-0.406-0.398
				c-0.153,0-0.31,0.057-0.438,0.136l-0.093-0.523c0.146-0.092,0.43-0.186,0.718-0.186c0.606,0,0.908,0.396,0.908,0.839
				c0,0.348-0.189,0.635-0.494,0.776v0.01c0.336,0.112,0.593,0.412,0.593,0.882c0,0.527-0.406,1.044-1.157,1.044
				c-0.283,0-0.527-0.067-0.682-0.152L762.624,549.904z"/>
		</g>
		<g>
			<path fill="#FF0049" d="M721.91,539.102v-0.469l0.347-0.439c0.447-0.571,0.816-1.047,0.816-1.54c0-0.278-0.156-0.478-0.443-0.478
				c-0.219,0-0.395,0.097-0.521,0.178l-0.122-0.546c0.155-0.101,0.457-0.213,0.771-0.213c0.757,0,1.001,0.507,1.001,1.003
				c0,0.65-0.404,1.173-0.804,1.638l-0.209,0.242v0.014h1.062v0.61H721.91z"/>
		</g>
	</g>
</g>
<g>
	<ellipse opacity="0.5" fill="#FFEC00" enable-background="new    " cx="162.959" cy="163.943" rx="27.31" ry="26.462"/>
	<path opacity="0.5" fill="#FFEC00" enable-background="new    " d="M193.893,138.251h15.373c3.367,0,6.122-2.754,6.122-6.121
		v-14.653c0-3.368-2.755-6.123-6.122-6.123l-15.373,0.001c-3.362,0-6.118,2.755-6.118,6.123v14.652
		C187.774,135.497,190.529,138.251,193.893,138.251z"/>
	<path opacity="0.5" fill="#FFEC00" enable-background="new    " d="M205.224,165.419c0,22.62-18.919,40.957-42.265,40.957
		c-23.342,0-42.263-18.336-42.263-40.957c0-4.056,0.61-7.969,1.743-11.667h-12.485v57.438c0,2.975,2.429,5.408,5.403,5.408h94.691
		c2.969,0,5.401-2.434,5.401-5.408v-57.438h-11.966C204.613,157.45,205.224,161.364,205.224,165.419z"/>
	<path opacity="0.5" fill="#FFEC00" enable-background="new    " d="M162.201,43.066c-66.6,0-120.59,53.99-120.59,120.59
		c0,66.6,53.99,120.59,120.59,120.59s120.59-53.99,120.59-120.59C282.792,97.056,228.801,43.066,162.201,43.066z M230.572,211.355
		c-1.154,10.924-10.318,20.089-21.63,20.089h-94.637c-11.308,0-20.474-9.165-20.474-20.473v-94.627
		c0-11.308,9.167-20.475,20.474-20.475h94.639c11.307,0,20.473,9.167,21.627,20.86V211.355z"/>
</g>
<g>
	<path opacity="0.5" fill="#FFEC00" enable-background="new    " d="M509.557,50.399h2.179c0.478,0,0.867-0.391,0.867-0.868v-2.077
		c0-0.477-0.39-0.868-0.867-0.868h-2.179c-0.477,0-0.867,0.391-0.867,0.868v2.077C508.689,50.009,509.08,50.399,509.557,50.399z"/>
	<path opacity="0.5" fill="#FFEC00" enable-background="new    " d="M511.162,54.25c0,3.206-2.681,5.804-5.989,5.804
		c-3.308,0-5.989-2.599-5.989-5.804c0-0.575,0.086-1.129,0.247-1.653h-1.77v8.14c0,0.422,0.345,0.767,0.766,0.767h13.42
		c0.42,0,0.766-0.345,0.766-0.767v-8.14h-1.696C511.076,53.12,511.162,53.675,511.162,54.25z"/>
	<ellipse opacity="0.5" fill="#FFEC00" enable-background="new    " cx="505.173" cy="54.04" rx="3.87" ry="3.75"/>
	<path opacity="0.5" fill="#FFEC00" enable-background="new    " d="M505.065,36.91c-9.438,0-17.09,7.651-17.09,17.09
		c0,9.439,7.651,17.09,17.09,17.09s17.091-7.651,17.091-17.09C522.156,44.561,514.504,36.91,505.065,36.91z M514.755,60.759
		c-0.163,1.548-1.462,2.847-3.065,2.847h-13.412c-1.603,0-2.901-1.299-2.901-2.901V47.294c0-1.603,1.299-2.901,2.901-2.901h13.413
		c1.602,0,2.901,1.299,3.064,2.956V60.759z"/>
</g>
<g>
	<path opacity="0.5" fill="#FFEC00" enable-background="new    " d="M642.388,384.446c0,9.255-7.74,16.758-17.292,16.758
		c-9.551,0-17.293-7.503-17.293-16.758c0-1.659,0.25-3.261,0.714-4.774h-5.108v23.502c0,1.217,0.993,2.213,2.21,2.213h38.743
		c1.216,0,2.21-0.996,2.21-2.213v-23.502h-4.896C642.138,381.186,642.388,382.787,642.388,384.446z"/>
	<path opacity="0.5" fill="#FFEC00" enable-background="new    " d="M637.752,373.33h6.289c1.378,0,2.505-1.127,2.505-2.504v-5.996
		c0-1.377-1.127-2.505-2.505-2.505l-6.289,0.001c-1.376,0-2.504,1.127-2.504,2.504v5.996
		C635.248,372.203,636.376,373.33,637.752,373.33z"/>
	<ellipse opacity="0.5" fill="#FFEC00" enable-background="new    " cx="625.096" cy="383.842" rx="11.174" ry="10.827"/>
	<path opacity="0.5" fill="#FFEC00" enable-background="new    " d="M624.784,334.385c-27.25,0-49.34,22.09-49.34,49.34
		c0,27.249,22.09,49.341,49.34,49.341c27.251,0,49.341-22.092,49.341-49.341C674.125,356.475,652.035,334.385,624.784,334.385z
		 M652.76,403.241c-0.473,4.47-4.222,8.22-8.851,8.22h-38.721c-4.628,0-8.378-3.75-8.378-8.377v-38.717
		c0-4.627,3.75-8.379,8.378-8.379h38.722c4.626,0,8.377,3.752,8.85,8.536V403.241z"/>
</g>
<g>
	<ellipse opacity="0.5" fill="#FFEC00" enable-background="new    " cx="423.487" cy="506.043" rx="5.286" ry="5.122"/>
	<path opacity="0.5" fill="#FFEC00" enable-background="new    " d="M431.667,506.329c0,4.378-3.661,7.927-8.18,7.927
		s-8.181-3.549-8.181-7.927c0-0.785,0.118-1.543,0.338-2.259h-2.416v11.117c0,0.576,0.469,1.047,1.045,1.047h18.327
		c0.575,0,1.046-0.471,1.046-1.047V504.07h-2.316C431.549,504.786,431.667,505.544,431.667,506.329z"/>
	<path opacity="0.5" fill="#FFEC00" enable-background="new    " d="M429.475,501.07h2.975c0.652,0,1.186-0.533,1.186-1.185v-2.836
		c0-0.651-0.533-1.186-1.186-1.186l-2.975,0.001c-0.651,0-1.186,0.533-1.186,1.185v2.836
		C428.289,500.537,428.823,501.07,429.475,501.07z"/>
	<path opacity="0.5" fill="#FFEC00" enable-background="new    " d="M423.34,482.647c-12.891,0-23.34,10.449-23.34,23.34
		s10.45,23.341,23.34,23.341s23.341-10.45,23.341-23.341S436.23,482.647,423.34,482.647z M436.574,515.22
		c-0.225,2.114-1.998,3.889-4.188,3.889H414.07c-2.189,0-3.963-1.774-3.963-3.963V496.83c0-2.188,1.773-3.963,3.963-3.963h18.316
		c2.189,0,3.963,1.774,4.188,4.037V515.22z"/>
</g>
</svg>
