<?xml version="1.0" encoding="utf-8"?>
<!-- Generator: Adobe Illustrator 15.1.0, SVG Export Plug-In . SVG Version: 6.00 Build 0)  -->
<!DOCTYPE svg PUBLIC "-//W3C//DTD SVG 1.1//EN" "http://www.w3.org/Graphics/SVG/1.1/DTD/svg11.dtd" [
	<!ENTITY ns_extend "http://ns.adobe.com/Extensibility/1.0/">
	<!ENTITY ns_ai "http://ns.adobe.com/AdobeIllustrator/10.0/">
	<!ENTITY ns_graphs "http://ns.adobe.com/Graphs/1.0/">
	<!ENTITY ns_vars "http://ns.adobe.com/Variables/1.0/">
	<!ENTITY ns_imrep "http://ns.adobe.com/ImageReplacement/1.0/">
	<!ENTITY ns_sfw "http://ns.adobe.com/SaveForWeb/1.0/">
	<!ENTITY ns_custom "http://ns.adobe.com/GenericCustomNamespace/1.0/">
	<!ENTITY ns_adobe_xpath "http://ns.adobe.com/XPath/1.0/">
]>
<svg version="1.1" id="Слой_1" xmlns:x="&ns_extend;" xmlns:i="&ns_ai;" xmlns:graph="&ns_graphs;"
	 xmlns="http://www.w3.org/2000/svg" xmlns:xlink="http://www.w3.org/1999/xlink" x="0px" y="0px" width="20px" height="20px"
	 viewBox="0 0 20 20" enable-background="new 0 0 20 20" xml:space="preserve">
<metadata>
	<sfw  xmlns="&ns_sfw;">
		<slices></slices>
		<sliceSourceBounds  y="-19.102" x="0.715" height="19.023" width="19.023" bottomLeftOrigin="true"></sliceSourceBounds>
	</sfw>
</metadata>
<g>
	<circle fill="#FFFFFF" cx="10.227" cy="9.59" r="9.511"/>
	<g>
		<g>
			<path fill="#FF0049" d="M5.68,7.153v6.817h3.8V3.536h1.494V13.97h3.785V3.536h1.51v11.704H4.187V7.153H5.68z"/>
		</g>
		<g>
			<path fill="#FF0049" d="M4.195,6.43V6.068l0.267-0.34c0.342-0.439,0.626-0.802,0.626-1.182c0-0.214-0.12-0.367-0.342-0.367
				c-0.166,0-0.302,0.075-0.399,0.134L4.253,3.897C4.375,3.82,4.604,3.734,4.845,3.734c0.583,0,0.771,0.39,0.771,0.771
				c0,0.501-0.311,0.901-0.619,1.258L4.837,5.95v0.008h0.815V6.43H4.195z"/>
		</g>
	</g>
</g>
</svg>
