<?xml version="1.0" encoding="utf-8"?>
<!-- Generator: Adobe Illustrator 15.1.0, SVG Export Plug-In . SVG Version: 6.00 Build 0)  -->
<!DOCTYPE svg PUBLIC "-//W3C//DTD SVG 1.1//EN" "http://www.w3.org/Graphics/SVG/1.1/DTD/svg11.dtd">
<svg version="1.1" id="Слой_1" xmlns="http://www.w3.org/2000/svg" xmlns:xlink="http://www.w3.org/1999/xlink" x="0px" y="0px"
	 width="800px" height="600px" viewBox="0 0 800 600" enable-background="new 0 0 800 600" xml:space="preserve">
<g opacity="0.4">
	<circle opacity="0.5" fill="#FFFFFF" enable-background="new    " cx="390.5" cy="209.5" r="38.5"/>
	<g>
		<g>
			<path fill="#FF0049" d="M362.875,207.119v12.295h6.857v-18.817h2.693v18.817h6.826v-18.817h2.724V221.7h-21.792v-14.581H362.875z
				"/>
			<path fill="#FFFFFF" d="M386.7,200.846c1.315-0.219,3.037-0.407,5.229-0.407c2.693,0,4.666,0.626,5.917,1.753
				c1.159,1.002,1.849,2.537,1.849,4.415c0,1.91-0.563,3.413-1.629,4.509c-1.439,1.534-3.789,2.317-6.448,2.317
				c-0.815,0-1.567-0.032-2.192-0.188v8.454H386.7V200.846z M389.424,211.023c0.595,0.157,1.346,0.219,2.254,0.219
				c3.288,0,5.292-1.597,5.292-4.508c0-2.788-1.973-4.133-4.978-4.133c-1.19,0-2.099,0.094-2.568,0.219V211.023z"/>
			<path fill="#FFFFFF" d="M405.923,200.596v8.892c0,3.35-0.062,6.105-0.251,8.923l0.062,0.031c1.065-2.191,2.379-4.478,3.914-6.982
				l6.825-10.865h2.725v8.928h-2.567c0-3.413,0.031-2.729,0.251-5.39l-0.094-0.031c-1.034,2.316-2.474,4.759-3.915,7.107
				l-6.605,10.489h-2.911v-21.104h2.566V200.596z"/>
		</g>
		<g>
			<path fill="#FFFFFF" d="M417.669,211.729h-0.015l-0.812,0.421l-0.164-0.761l1.104-0.569h0.85v4.804h-0.961L417.669,211.729
				L417.669,211.729z"/>
			<path fill="#FFFFFF" d="M416.664,220.796c0.192,0.111,0.458,0.184,0.717,0.184c0.465,0,0.726-0.288,0.726-0.695
				c0-0.532-0.406-0.76-0.902-0.76h-0.133v-0.71h0.096c0.354-0.007,0.814-0.154,0.814-0.621c0-0.348-0.224-0.554-0.562-0.554
				c-0.215,0-0.429,0.081-0.605,0.192l-0.126-0.732c0.199-0.125,0.592-0.251,0.99-0.251c0.844,0,1.265,0.547,1.265,1.161
				c0,0.48-0.268,0.879-0.688,1.08v0.015c0.467,0.155,0.822,0.568,0.822,1.219c0,0.732-0.562,1.449-1.604,1.449
				c-0.392,0-0.73-0.096-0.945-0.214L416.664,220.796z"/>
		</g>
		<g>
			<path fill="#FF0049" d="M360.196,205.814v-0.65l0.481-0.614c0.621-0.791,1.131-1.449,1.131-2.136
				c0-0.385-0.214-0.658-0.613-0.658c-0.304,0-0.548,0.133-0.725,0.244l-0.17-0.754c0.222-0.141,0.636-0.295,1.072-0.295
				c1.049,0,1.39,0.702,1.39,1.39c0,0.901-0.562,1.626-1.116,2.269l-0.289,0.339v0.016h1.471v0.85L360.196,205.814L360.196,205.814z
				"/>
		</g>
	</g>
</g>
<g opacity="0.7">
	<circle opacity="0.5" fill="#FFFFFF" enable-background="new    " cx="729.5" cy="72.5" r="54.5"/>
	<g>
		<g>
			<path fill="#FF0049" d="M690.395,69.129v17.404h9.706V59.896h3.812v26.637h9.662V59.896h3.855v29.873h-30.849v-20.64H690.395z"/>
			<path fill="#FFFFFF" d="M724.12,60.25c1.862-0.31,4.3-0.576,7.401-0.576c3.812,0,6.604,0.887,8.377,2.482
				c1.641,1.418,2.614,3.59,2.614,6.25c0,2.704-0.797,4.831-2.306,6.383c-2.037,2.171-5.361,3.28-9.128,3.28
				c-1.154,0-2.219-0.044-3.104-0.267v11.967h-3.855L724.12,60.25L724.12,60.25z M727.977,74.656c0.843,0.222,1.904,0.31,3.191,0.31
				c4.654,0,7.49-2.26,7.49-6.382c0-3.946-2.793-5.851-7.047-5.851c-1.687,0-2.972,0.132-3.636,0.31L727.977,74.656L727.977,74.656z
				"/>
			<path fill="#FFFFFF" d="M751.332,59.896v12.587c0,4.742-0.088,8.643-0.354,12.632l0.09,0.044
				c1.508-3.103,3.366-6.338,5.538-9.884l9.664-15.38h3.855v12.639h-3.634c0-4.832,0.044-3.862,0.354-7.63l-0.133-0.044
				c-1.463,3.279-3.502,6.737-5.541,10.061l-9.352,14.849h-4.123V59.896H751.332z"/>
		</g>
		<g>
			<path fill="#FFFFFF" d="M767.96,75.656h-0.021l-1.151,0.597l-0.23-1.078l1.561-0.806h1.203v6.8h-1.36L767.96,75.656
				L767.96,75.656z"/>
			<path fill="#FFFFFF" d="M766.538,88.49c0.271,0.157,0.646,0.261,1.015,0.261c0.658,0,1.025-0.407,1.025-0.983
				c0-0.753-0.576-1.076-1.277-1.076h-0.188v-1.006h0.135c0.502-0.01,1.152-0.219,1.152-0.878c0-0.492-0.314-0.784-0.796-0.784
				c-0.305,0-0.606,0.115-0.858,0.271l-0.178-1.036c0.283-0.177,0.838-0.355,1.401-0.355c1.193,0,1.789,0.775,1.789,1.643
				c0,0.679-0.377,1.244-0.975,1.528v0.021c0.66,0.219,1.163,0.805,1.163,1.726c0,1.036-0.796,2.05-2.271,2.05
				c-0.555,0-1.035-0.136-1.34-0.303L766.538,88.49z"/>
		</g>
		<g>
			<path fill="#FF0049" d="M686.604,67.282v-0.92l0.681-0.869c0.879-1.119,1.602-2.051,1.602-3.023c0-0.544-0.305-0.931-0.869-0.931
				c-0.43,0-0.774,0.188-1.024,0.345l-0.24-1.067c0.313-0.199,0.899-0.418,1.518-0.418c1.484,0,1.968,0.994,1.968,1.967
				c0,1.276-0.796,2.302-1.58,3.211l-0.409,0.481v0.022h2.083v1.203L686.604,67.282L686.604,67.282z"/>
		</g>
	</g>
</g>
<g opacity="0.3">
	<circle opacity="0.5" fill="#FFFFFF" enable-background="new    " cx="101.06" cy="410.061" r="84.06"/>
	<g>
		<g>
			<path fill="#FF0049" d="M40.744,404.86v26.845h14.971v-41.084h5.879v41.084h14.902v-41.084h5.948v46.075h-47.58V404.86H40.744z"
				/>
			<path fill="#FFFFFF" d="M92.762,391.166c2.873-0.479,6.633-0.889,11.416-0.889c5.881,0,10.188,1.366,12.921,3.829
				c2.53,2.187,4.033,5.535,4.033,9.64c0,4.169-1.229,7.449-3.556,9.845c-3.143,3.347-8.27,5.059-14.079,5.059
				c-1.78,0-3.422-0.067-4.787-0.409v18.457h-5.948V391.166z M98.71,413.386c1.299,0.341,2.938,0.477,4.923,0.477
				c7.179,0,11.553-3.485,11.553-9.841c0-6.088-4.308-9.025-10.869-9.025c-2.6,0-4.582,0.204-5.606,0.479L98.71,413.386
				L98.71,413.386z"/>
			<path fill="#FFFFFF" d="M134.733,390.621v19.413c0,7.312-0.136,13.332-0.547,19.482l0.138,0.069
				c2.325-4.787,5.193-9.777,8.543-15.246l14.905-23.72h5.947v19.493h-5.604c0-7.453,0.067-5.959,0.546-11.771l-0.204-0.068
				c-2.257,5.058-5.401,10.393-8.547,15.518l-14.424,22.903h-6.359V390.62L134.733,390.621L134.733,390.621z"/>
		</g>
		<g>
			<path fill="#FFFFFF" d="M160.38,414.928h-0.031l-1.776,0.919l-0.355-1.661l2.406-1.241h1.855v10.486h-2.099V414.928z"/>
			<path fill="#FFFFFF" d="M158.188,434.724c0.418,0.24,0.998,0.401,1.564,0.401c1.016,0,1.582-0.628,1.582-1.517
				c0-1.163-0.889-1.659-1.971-1.659h-0.289v-1.552h0.208c0.774-0.017,1.777-0.339,1.777-1.355c0-0.76-0.485-1.208-1.228-1.208
				c-0.469,0-0.936,0.176-1.324,0.418l-0.274-1.6c0.438-0.272,1.293-0.549,2.163-0.549c1.841,0,2.76,1.196,2.76,2.535
				c0,1.047-0.581,1.919-1.503,2.357v0.031c1.018,0.339,1.794,1.24,1.794,2.66c0,1.6-1.228,3.164-3.502,3.164
				c-0.855,0-1.599-0.21-2.067-0.468L158.188,434.724z"/>
		</g>
		<g>
			<path fill="#FF0049" d="M34.896,402.013v-1.421l1.05-1.339c1.355-1.727,2.471-3.163,2.471-4.663c0-0.839-0.471-1.436-1.341-1.436
				c-0.663,0-1.196,0.289-1.582,0.53l-0.37-1.646c0.483-0.307,1.388-0.645,2.339-0.645c2.291,0,3.035,1.532,3.035,3.033
				c0,1.97-1.228,3.551-2.437,4.952l-0.632,0.742v0.035h3.213v1.854h-5.746V402.013z"/>
		</g>
	</g>
</g>
<g opacity="0.5">
	<circle opacity="0.5" fill="#FFFFFF" enable-background="new    " cx="559" cy="437" r="45"/>
	<g>
		<g>
			<path fill="#FF0049" d="M526.711,434.217v14.37h8.014v-21.993h3.148v21.993h7.978v-21.993h3.186v24.665h-25.472v-17.042H526.711z
				"/>
			<path fill="#FFFFFF" d="M554.559,426.886c1.537-0.257,3.55-0.477,6.11-0.477c3.147,0,5.454,0.731,6.917,2.05
				c1.354,1.171,2.159,2.965,2.159,5.161c0,2.23-0.657,3.988-1.903,5.27c-1.682,1.792-4.428,2.708-7.537,2.708
				c-0.953,0-1.832-0.036-2.562-0.22v9.881h-3.185V426.886L554.559,426.886z M557.742,438.78c0.695,0.183,1.572,0.255,2.635,0.255
				c3.844,0,6.186-1.866,6.186-5.27c0-3.259-2.307-4.832-5.818-4.832c-1.393,0-2.452,0.11-3.001,0.258L557.742,438.78
				L557.742,438.78z"/>
			<path fill="#FFFFFF" d="M577.026,426.594v10.394c0,3.915-0.072,7.137-0.292,10.43l0.071,0.037
				c1.246-2.562,2.781-5.233,4.574-8.161l7.979-12.698h3.183v10.437h-3c0-3.99,0.037-3.19,0.293-6.301l-0.109-0.037
				c-1.208,2.707-2.892,5.562-4.575,8.307l-7.722,12.261h-3.403v-24.665h3.001V426.594z"/>
		</g>
		<g>
			<path fill="#FFFFFF" d="M590.756,439.606h-0.017l-0.951,0.49l-0.19-0.889l1.288-0.666h0.993v5.615h-1.123V439.606z"/>
			<path fill="#FFFFFF" d="M589.582,450.203c0.225,0.129,0.535,0.215,0.838,0.215c0.543,0,0.847-0.336,0.847-0.812
				c0-0.623-0.476-0.89-1.055-0.89h-0.155v-0.831h0.111c0.414-0.008,0.951-0.181,0.951-0.726c0-0.406-0.26-0.646-0.656-0.646
				c-0.251,0-0.501,0.096-0.709,0.226l-0.146-0.856c0.232-0.146,0.69-0.294,1.156-0.294c0.985,0,1.479,0.642,1.479,1.357
				c0,0.561-0.312,1.026-0.806,1.262v0.017c0.546,0.183,0.961,0.665,0.961,1.426c0,0.854-0.657,1.692-1.874,1.692
				c-0.459,0-0.855-0.11-1.107-0.25L589.582,450.203z"/>
		</g>
		<g>
			<path fill="#FF0049" d="M523.58,432.691v-0.761l0.562-0.717c0.726-0.925,1.321-1.692,1.321-2.497
				c0-0.449-0.251-0.769-0.717-0.769c-0.354,0-0.64,0.154-0.847,0.285l-0.199-0.883c0.26-0.164,0.743-0.345,1.253-0.345
				c1.227,0,1.624,0.821,1.624,1.624c0,1.054-0.656,1.9-1.305,2.651l-0.337,0.396v0.02h1.72v0.992h-3.075V432.691z"/>
		</g>
	</g>
</g>
<g opacity="0.05">
	<circle opacity="0.5" fill="#FFFFFF" enable-background="new    " cx="45.578" cy="560.578" r="20.578"/>
	<g>
		<g>
			<path fill="#FF0049" d="M30.812,559.305v6.572h3.665v-10.058h1.439v10.058h3.648v-10.058h1.456v11.278H29.374v-7.794
				L30.812,559.305L30.812,559.305z"/>
			<path fill="#FFFFFF" d="M43.547,555.953c0.703-0.117,1.623-0.218,2.795-0.218c1.439,0,2.494,0.335,3.162,0.937
				c0.62,0.536,0.988,1.356,0.988,2.36c0,1.021-0.301,1.823-0.871,2.41c-0.77,0.818-2.024,1.237-3.446,1.237
				c-0.436,0-0.838-0.017-1.172-0.101v4.519h-1.456V555.953z M45.003,561.393c0.318,0.083,0.719,0.116,1.205,0.116
				c1.757,0,2.828-0.853,2.828-2.409c0-1.489-1.055-2.209-2.661-2.209c-0.636,0-1.121,0.051-1.372,0.117V561.393z"/>
			<path fill="#FFFFFF" d="M53.821,555.819v4.753c0,1.79-0.033,3.264-0.134,4.77l0.033,0.018c0.57-1.172,1.271-2.395,2.092-3.731
				l3.648-5.808h1.457v4.771h-1.373c0-1.824,0.018-1.459,0.135-2.882l-0.051-0.017c-0.553,1.237-1.322,2.544-2.092,3.799
				l-3.531,5.605h-1.557v-11.278H53.821z"/>
		</g>
		<g>
			<path fill="#FFFFFF" d="M60.1,561.77h-0.008l-0.435,0.227l-0.087-0.407l0.589-0.305h0.454v2.567H60.1V561.77z"/>
			<path fill="#FFFFFF" d="M59.562,566.615c0.104,0.06,0.245,0.1,0.384,0.1c0.249,0,0.387-0.154,0.387-0.372
				c0-0.284-0.218-0.406-0.481-0.406H59.78v-0.38h0.051c0.189-0.004,0.435-0.082,0.435-0.332c0-0.186-0.118-0.295-0.3-0.295
				c-0.114,0-0.229,0.043-0.324,0.103l-0.067-0.392c0.107-0.066,0.316-0.135,0.529-0.135c0.451,0,0.676,0.293,0.676,0.621
				c0,0.256-0.143,0.469-0.367,0.576v0.008c0.248,0.083,0.438,0.305,0.438,0.652c0,0.391-0.301,0.772-0.857,0.772
				c-0.21,0-0.392-0.051-0.506-0.112L59.562,566.615z"/>
		</g>
		<g>
			<path fill="#FF0049" d="M29.381,558.607v-0.349l0.257-0.327c0.332-0.423,0.604-0.773,0.604-1.142
				c0-0.205-0.114-0.353-0.328-0.353c-0.162,0-0.292,0.07-0.387,0.132l-0.091-0.404c0.118-0.074,0.34-0.157,0.573-0.157
				c0.561,0,0.743,0.375,0.743,0.743c0,0.481-0.3,0.869-0.597,1.212l-0.154,0.182v0.01h0.787v0.452L29.381,558.607L29.381,558.607z"
				/>
		</g>
	</g>
</g>
<g opacity="0.3">
	<circle opacity="0.5" fill="#FFFFFF" enable-background="new    " cx="743.76" cy="541.76" r="27.76"/>
	<g>
		<g>
			<path fill="#FF0049" d="M723.841,540.042v8.865h4.945v-13.566h1.939v13.566h4.921v-13.566h1.967v15.216h-15.715v-10.515H723.841z
				"/>
			<path fill="#FFFFFF" d="M741.02,535.521c0.947-0.158,2.188-0.295,3.771-0.295c1.94,0,3.363,0.451,4.266,1.264
				c0.835,0.724,1.332,1.831,1.332,3.187c0,1.375-0.403,2.46-1.175,3.25c-1.036,1.105-2.729,1.671-4.648,1.671
				c-0.587,0-1.13-0.022-1.58-0.136v6.096h-1.964v-15.036H741.02z M742.983,542.859c0.43,0.109,0.97,0.154,1.628,0.154
				c2.366,0,3.812-1.147,3.812-3.249c0-2.012-1.422-2.979-3.589-2.979c-0.859,0-1.514,0.065-1.853,0.157L742.983,542.859
				L742.983,542.859z"/>
			<path fill="#FFFFFF" d="M754.879,535.341v6.411c0,2.415-0.043,4.403-0.181,6.436l0.047,0.021c0.769-1.58,1.714-3.229,2.821-5.034
				l4.922-7.833h1.964v6.438H762.6c0-2.461,0.023-1.969,0.183-3.888l-0.067-0.021c-0.747,1.67-1.785,3.432-2.823,5.124l-4.764,7.562
				h-2.101v-15.216H754.879z"/>
		</g>
		<g>
			<path fill="#FFFFFF" d="M763.35,543.367h-0.01l-0.588,0.304l-0.116-0.55l0.794-0.41h0.613v3.464h-0.693V543.367L763.35,543.367z"
				/>
			<path fill="#FFFFFF" d="M762.624,549.904c0.14,0.079,0.331,0.134,0.519,0.134c0.336,0,0.521-0.208,0.521-0.502
				c0-0.384-0.293-0.548-0.649-0.548h-0.097v-0.513h0.068c0.257-0.006,0.588-0.109,0.588-0.446c0-0.253-0.16-0.398-0.406-0.398
				c-0.153,0-0.31,0.057-0.438,0.136l-0.092-0.524c0.146-0.092,0.429-0.185,0.717-0.185c0.607,0,0.909,0.396,0.909,0.839
				c0,0.347-0.19,0.634-0.495,0.776v0.01c0.336,0.112,0.593,0.412,0.593,0.881c0,0.528-0.406,1.044-1.157,1.044
				c-0.283,0-0.527-0.067-0.682-0.152L762.624,549.904z"/>
		</g>
		<g>
			<path fill="#FF0049" d="M721.91,539.102v-0.469l0.347-0.44c0.447-0.571,0.816-1.046,0.816-1.54c0-0.278-0.156-0.477-0.443-0.477
				c-0.219,0-0.395,0.096-0.521,0.178l-0.122-0.546c0.156-0.101,0.457-0.213,0.771-0.213c0.757,0,1.001,0.507,1.001,1.003
				c0,0.65-0.404,1.173-0.804,1.637l-0.209,0.243v0.013h1.062v0.611H721.91z"/>
		</g>
	</g>
</g>
<g>
	<circle opacity="0.5" fill="#FFFFFF" enable-background="new    " cx="163.59" cy="164.59" r="120.59"/>
	<path fill="#FF0000" d="M244.127,121.491c-10.625,3.75-12.125,3.25-6.875-2.375c3.875-4,8.5-11.25,8.5-13.375
		c0-0.375-1.875,0.25-4,1.375c-2.25,1.25-7.25,3.125-11,4.25l-6.75,2.125l-6.125-4.125c-3.375-2.25-8.125-4.75-10.625-5.5
		c-6.375-1.75-16.125-1.5-21.875,0.5c-15.625,5.625-25.5,20.125-24.375,36l0.375,6.125l-6.25-0.75
		c-22.75-2.875-42.625-12.625-59.5-29l-8.25-8.125l-2.125,6c-4.5,13.375-1.625,27.5,7.75,37c5,5.25,3.875,6-4.75,2.875
		c-3-1-5.625-1.75-5.875-1.375c-0.875,0.875,2.125,12.25,4.5,16.75c3.25,6.25,9.875,12.375,17.125,16l6.125,2.875l-7.25,0.125
		c-7,0-7.25,0.125-6.5,2.75c2.5,8.125,12.375,16.75,23.375,20.5l7.75,2.625l-6.75,4c-10,5.75-21.75,9-33.5,9.25
		c-5.625,0.125-10.25,0.625-10.25,1c0,1.25,15.25,8.25,24.125,11c26.625,8.125,58.25,4.625,82-9.25
		c16.875-9.875,33.75-29.5,41.625-48.5c4.25-10.125,8.5-28.625,8.5-37.5c0-5.75,0.375-6.5,7.375-13.375c4.125-4,8-8.375,8.75-9.625
		C250.627,119.366,250.502,119.366,244.127,121.491z"/>
</g>
<g>
	<circle opacity="0.5" fill="#FFFFFF" enable-background="new    " cx="280.017" cy="401.018" r="58.017"/>
	<path opacity="0.5" fill="#FF0000" enable-background="new    " d="M318.765,380.281c-5.112,1.805-5.833,1.563-3.308-1.144
		c1.864-1.924,4.089-5.412,4.089-6.435c0-0.181-0.902,0.12-1.924,0.661c-1.083,0.602-3.488,1.504-5.292,2.045l-3.248,1.021
		l-2.947-1.983c-1.624-1.083-3.909-2.285-5.112-2.646c-3.067-0.843-7.758-0.723-10.524,0.24c-7.517,2.706-12.269,9.682-11.727,17.32
		l0.18,2.945l-3.007-0.359c-10.945-1.384-20.507-6.074-28.626-13.953l-3.969-3.908l-1.022,2.887
		c-2.165,6.436-0.782,13.23,3.729,17.802c2.406,2.524,1.864,2.887-2.285,1.383c-1.443-0.48-2.706-0.842-2.827-0.661
		c-0.421,0.421,1.022,5.894,2.165,8.058c1.563,3.009,4.751,5.955,8.239,7.698l2.947,1.384l-3.488,0.061
		c-3.368,0-3.488,0.06-3.127,1.323c1.203,3.908,5.954,8.059,11.246,9.862l3.729,1.263l-3.248,1.926
		c-4.811,2.766-10.464,4.329-16.117,4.449c-2.707,0.061-4.932,0.301-4.932,0.48c0,0.602,7.337,3.97,11.607,5.292
		c12.81,3.909,28.025,2.226,39.452-4.45c8.119-4.751,16.237-14.191,20.026-23.333c2.045-4.872,4.09-13.771,4.09-18.042
		c0-2.767,0.18-3.128,3.548-6.435c1.985-1.925,3.849-4.029,4.21-4.631C321.892,379.26,321.832,379.26,318.765,380.281z"/>
</g>
<g>
	<circle opacity="0.5" fill="#FFFFFF" enable-background="new    " cx="501.365" cy="71.365" r="32.365"/>
	<path opacity="0.5" fill="#FF0000" enable-background="new    " d="M522.98,59.797c-2.853,1.007-3.255,0.873-1.846-0.637
		c1.04-1.073,2.281-3.019,2.281-3.589c0-0.101-0.503,0.067-1.074,0.369c-0.604,0.335-1.944,0.839-2.952,1.141l-1.812,0.57
		l-1.646-1.107c-0.904-0.604-2.18-1.275-2.851-1.476c-1.711-0.47-4.328-0.403-5.871,0.134c-4.193,1.51-6.845,5.401-6.543,9.662
		l0.102,1.644l-1.678-0.201c-6.105-0.772-11.439-3.389-15.969-7.784l-2.215-2.181l-0.57,1.611c-1.208,3.589-0.437,7.38,2.08,9.93
		c1.342,1.409,1.04,1.61-1.274,0.771c-0.806-0.268-1.511-0.469-1.576-0.369c-0.235,0.235,0.569,3.288,1.208,4.495
		c0.871,1.678,2.649,3.322,4.596,4.294l1.644,0.772l-1.944,0.033c-1.879,0-1.945,0.033-1.745,0.738
		c0.672,2.181,3.321,4.496,6.273,5.502l2.079,0.704l-1.811,1.074c-2.686,1.543-5.838,2.415-8.991,2.482
		c-1.51,0.034-2.751,0.168-2.751,0.269c0,0.336,4.093,2.215,6.475,2.952c7.146,2.181,15.635,1.242,22.009-2.482
		c4.528-2.65,9.059-7.917,11.172-13.017c1.142-2.718,2.281-7.683,2.281-10.064c0-1.543,0.101-1.745,1.979-3.59
		c1.107-1.074,2.146-2.248,2.349-2.583C524.725,59.228,524.691,59.228,522.98,59.797z"/>
</g>
<g>
	<circle opacity="0.5" fill="#FFFFFF" enable-background="new    " cx="116.018" cy="551.018" r="30.018"/>
	<path opacity="0.5" fill="#FF0000" enable-background="new    " d="M136.065,540.289c-2.645,0.934-3.018,0.809-1.711-0.592
		c0.964-0.995,2.116-2.8,2.116-3.328c0-0.094-0.467,0.062-0.996,0.342c-0.561,0.311-1.805,0.777-2.738,1.058l-1.681,0.529
		l-1.525-1.026c-0.84-0.561-2.022-1.183-2.645-1.368c-1.586-0.437-4.014-0.374-5.445,0.124c-3.889,1.399-6.348,5.009-6.067,8.962
		l0.093,1.522l-1.556-0.186c-5.663-0.717-10.61-3.144-14.811-7.22l-2.054-2.022l-0.529,1.494c-1.12,3.329-0.404,6.846,1.929,9.21
		c1.245,1.307,0.965,1.493-1.182,0.716c-0.747-0.249-1.4-0.436-1.462-0.343c-0.218,0.218,0.529,3.05,1.12,4.169
		c0.809,1.557,2.458,3.081,4.263,3.983l1.524,0.716l-1.805,0.031c-1.742,0-1.804,0.029-1.618,0.684
		c0.622,2.023,3.081,4.17,5.818,5.104l1.929,0.652l-1.68,0.997c-2.489,1.431-5.414,2.239-8.339,2.302
		c-1.4,0.031-2.551,0.156-2.551,0.249c0,0.312,3.796,2.055,6.005,2.738c6.628,2.021,14.5,1.151,20.412-2.303
		c4.2-2.458,8.401-7.344,10.361-12.072c1.058-2.521,2.116-7.126,2.116-9.335c0-1.432,0.093-1.618,1.835-3.328
		c1.027-0.996,1.992-2.086,2.179-2.396C137.683,539.76,137.652,539.76,136.065,540.289z"/>
</g>
<g>
	<circle opacity="0.5" fill="#FFFFFF" enable-background="new    " cx="638.617" cy="269.617" r="23.617"/>
	<path opacity="0.5" fill="#FF0000" enable-background="new    " d="M654.389,261.176c-2.08,0.734-2.374,0.636-1.346-0.465
		c0.759-0.783,1.665-2.203,1.665-2.619c0-0.074-0.367,0.048-0.784,0.269c-0.439,0.244-1.42,0.611-2.153,0.832l-1.322,0.417
		l-1.199-0.808c-0.661-0.441-1.591-0.931-2.081-1.077c-1.248-0.343-3.157-0.294-4.284,0.098c-3.059,1.102-4.994,3.94-4.772,7.051
		l0.073,1.199l-1.225-0.146c-4.455-0.564-8.348-2.473-11.652-5.68l-1.614-1.591l-0.417,1.175c-0.883,2.62-0.317,5.386,1.519,7.246
		c0.979,1.028,0.758,1.175-0.931,0.563c-0.588-0.196-1.104-0.343-1.151-0.27c-0.17,0.171,0.417,2.399,0.882,3.28
		c0.636,1.225,1.936,2.424,3.354,3.134l1.199,0.563l-1.421,0.024c-1.37,0-1.42,0.024-1.272,0.538
		c0.49,1.592,2.424,3.281,4.578,4.015l1.518,0.514l-1.322,0.784c-1.958,1.126-4.26,1.762-6.561,1.812
		c-1.102,0.024-2.007,0.122-2.007,0.195c0,0.245,2.985,1.616,4.724,2.154c5.215,1.592,11.408,0.906,16.062-1.812
		c3.305-1.934,6.607-5.777,8.15-9.498c0.833-1.983,1.665-5.606,1.665-7.344c0-1.126,0.073-1.273,1.443-2.619
		c0.809-0.784,1.566-1.641,1.715-1.885C655.662,260.759,655.638,260.759,654.389,261.176z"/>
</g>
</svg>
