<?xml version="1.0" encoding="utf-8"?>
<!-- Generator: Adobe Illustrator 15.1.0, SVG Export Plug-In . SVG Version: 6.00 Build 0)  -->
<!DOCTYPE svg PUBLIC "-//W3C//DTD SVG 1.1//EN" "http://www.w3.org/Graphics/SVG/1.1/DTD/svg11.dtd" [
	<!ENTITY ns_extend "http://ns.adobe.com/Extensibility/1.0/">
	<!ENTITY ns_ai "http://ns.adobe.com/AdobeIllustrator/10.0/">
	<!ENTITY ns_graphs "http://ns.adobe.com/Graphs/1.0/">
	<!ENTITY ns_vars "http://ns.adobe.com/Variables/1.0/">
	<!ENTITY ns_imrep "http://ns.adobe.com/ImageReplacement/1.0/">
	<!ENTITY ns_sfw "http://ns.adobe.com/SaveForWeb/1.0/">
	<!ENTITY ns_custom "http://ns.adobe.com/GenericCustomNamespace/1.0/">
	<!ENTITY ns_adobe_xpath "http://ns.adobe.com/XPath/1.0/">
]>
<svg version="1.1" id="Слой_1" xmlns:x="&ns_extend;" xmlns:i="&ns_ai;" xmlns:graph="&ns_graphs;"
	 xmlns="http://www.w3.org/2000/svg" xmlns:xlink="http://www.w3.org/1999/xlink" x="0px" y="0px" width="200px" height="100px"
	 viewBox="0 0 200 100" enable-background="new 0 0 200 100" xml:space="preserve">
<metadata>
	<sfw  xmlns="&ns_sfw;">
		<slices></slices>
		<sliceSourceBounds  y="-86.39" x="8.417" height="72.78" width="183.167" bottomLeftOrigin="true"></sliceSourceBounds>
	</sfw>
</metadata>
<g>
	<path fill="#EC1C24" d="M38.205,13.61h-9.76c-9.585,0-17.718,7.299-17.718,21.467c0,8.5,3.939,14.768,10.956,17.858L8.588,76.637
		c-0.428,0.773,0,1.371,0.682,1.371h6.078c0.514,0,0.856-0.172,1.028-0.598l11.897-23.271h4.282V77.41
		c0,0.256,0.257,0.598,0.596,0.598h5.31c0.514,0,0.685-0.256,0.685-0.684V14.469C39.146,13.867,38.804,13.61,38.205,13.61z
		 M32.556,48.643h-3.597c-5.649,0-11.127-4.121-11.127-14.425c0-10.735,5.136-15.113,10.356-15.113h4.368V48.643z"/>
	<path d="M70.379,34.958h-5.307c-0.428,0-0.685,0.342-0.685,0.599v16.401h-9.845V35.558c0-0.428-0.169-0.599-0.597-0.599h-5.31
		c-0.425,0-0.682,0.257-0.682,0.599v41.731c0,0.43,0.171,0.688,0.597,0.688h5.395c0.342,0,0.597-0.258,0.597-0.688v-19.92h9.845
		v19.92c0,0.43,0.257,0.688,0.685,0.688h5.307c0.428,0,0.599-0.344,0.599-0.688V35.558C70.979,35.215,70.721,34.958,70.379,34.958z"
		/>
	<path d="M191.554,75.229l-0.685-2.918c-0.082-0.258-0.169-0.344-0.425-0.344c-0.429,0-2.74,0.941-6.079,0.941
		c-6.505,0-9.675-6.264-9.675-16.227c0-8.759,2.655-17.43,7.107-17.43c1.199,0,2.654,0.342,4.963,2.491
		c0.258,0.257,0.43,0.343,0.685,0.343c0.259,0,0.516-0.174,0.771-0.603l2.313-3.776c0.17-0.259,0.257-0.519,0.257-0.776
		c0-0.342-0.343-0.599-0.856-0.856c-3.512-1.804-5.906-2.146-7.962-2.146c-8.048,0-14.296,9.616-14.296,24.641
		c0,12.969,5.991,20.438,14.553,20.438c3.597,0,7.448-1.717,8.988-2.834C191.554,75.914,191.639,75.572,191.554,75.229z"/>
	<path d="M154.353,54.361l10.271-18.804c0.17-0.257,0.085-0.599-0.259-0.599h-5.05c-1.455,0-1.97,0.514-2.479,1.63l-7.707,16.058
		c-0.425,0.945-0.854,1.545-1.281,1.805V35.558c0-0.342-0.172-0.599-0.515-0.599h-5.563c-0.257,0-0.516,0.257-0.516,0.599v41.817
		c0,0.258,0.172,0.602,0.516,0.602h5.563c0.343,0,0.515-0.258,0.515-0.602V55.824c0.255,0.17,0.427,0.428,0.599,0.773l9.756,20.09
		c0.516,1.031,1.285,1.289,2.398,1.289h5.479c0.343,0,0.428-0.344,0.256-0.602L154.353,54.361z"/>
	<path d="M105.305,72.566h-1.028c-1.283,0-1.626-0.514-1.626-1.545V35.558c0-0.428-0.172-0.599-0.514-0.599H85.018
		c-0.428,0-0.685,0.257-0.685,0.599v3.091c0,10.39-0.6,23.785-6.077,33.917h-1.884c-0.514,0-0.685,0.26-0.685,0.688
		c0,0,0,10.305,0,12.537c0,0.43,0.343,0.6,0.599,0.6h4.111c0.939,0,1.282-0.686,1.282-1.287v-7.127h18.321v7.814
		c0,0.342,0.253,0.6,0.597,0.6h4.367c0.512,0,1.024-0.43,1.024-1.287v-11.85C105.986,72.826,105.73,72.566,105.305,72.566z
		 M96.059,72.566H83.647c4.368-7.469,6.078-15.885,6.676-26.188c0.172-2.232,0.257-4.553,0.257-6.011h5.478V72.566z"/>
	<path d="M122.767,33.928c-9.243,0-13.354,11.677-13.354,24.385c0,12.967,5.82,20.693,14.382,20.693
		c4.193,0,7.875-1.631,9.756-2.834c0.342-0.172,0.429-0.428,0.342-0.771l-0.683-2.92c-0.087-0.342-0.259-0.514-0.688-0.514
		c-0.338,0-2.823,0.941-6.333,0.941c-6.592,0-9.671-5.75-9.671-13.307c0-1.033,0-2.033,0-2.033s3.336,0.402,5.307,0.402h12.496
		v-3.609C134.321,41.056,129.611,33.928,122.767,33.928z M121.825,52.561c-1.971,0-5.051,0.342-5.051,0.342s0-1.285,0.172-2.662
		c0.767-7.299,2.566-10.989,5.563-10.989c2.74,0,4.45,3.776,4.878,10.39c0.085,1.373,0.085,2.919,0.085,2.919H121.825z"/>
</g>
</svg>
